<?xml version="1.0" encoding="UTF-8"?>
<svg width="48px" height="48px" viewBox="0 0 48 48" version="1.1" xmlns="http://www.w3.org/2000/svg" xmlns:xlink="http://www.w3.org/1999/xlink">
    <!-- Generator: Sketch 53.2 (72643) - https://sketchapp.com -->
    <title>Atoms/Brand Elements/Care Design System Crest</title>
    <desc>Created with Sketch.</desc>
    <g id="LSG-2.1" stroke="none" stroke-width="1" fill="none" fill-rule="evenodd">
        <g id="HP" transform="translate(-107.000000, -45.000000)">
            <g id="Group-Copy" transform="translate(0.000000, -1.000000)">
                <g id="Atoms/Brand-Elements/Care-Design-System-Crest" transform="translate(107.000000, 46.000000)">
                    <g>
                        <rect id="Rectangle" fill="#27E4C4" x="0" y="0" width="48" height="48" rx="24"></rect>
                        <g id="Crest-Copy" transform="translate(8.000000, 7.000000)" fill="#FEFEFE">
                            <path d="M10.1210625,15.0435722 L10.1210625,15.1878288 C10.1210625,22.6118352 16.2913673,28.6528023 23.874691,28.6528023 C26.0437143,28.6528023 28.121899,28.1693389 30.0532538,27.2153559 C30.7721682,26.4788575 31.4188245,25.662569 31.980622,24.783761 C29.6712116,26.2421915 27.0042127,27.01013 24.2300369,27.01013 C20.4951137,27.01013 16.96682,25.6167429 14.2917766,23.0805881 C11.9944329,20.9023527 10.5443595,18.0911692 10.1210625,15.0435722" id="Claw-4"></path>
                            <path d="M14.2378429,3.48481972 C9.65828343,6.46758961 6.9603168,11.2465907 6.9603168,16.4798865 C6.9603168,25.0809491 14.229834,32.0614051 23.5151377,32.3793393 C25.7235648,31.6053436 27.7643746,30.3329576 29.4585237,28.6778462 C27.5744392,29.5379417 25.5664481,29.9750742 23.4801477,29.9750742 C15.4402456,29.9750742 8.90010768,23.3610467 8.90010768,15.2296744 C8.90010768,11.6212036 10.2015003,8.1499947 12.5688952,5.45263733 C13.0583991,4.75060764 13.6203746,4.09065429 14.2378429,3.48481972" id="Claw-3-(50%)"></path>
                            <path d="M6.73514572,29.9208797 C9.68929032,32.5319932 13.4549677,33.9698723 17.3408498,33.9698723 C18.9438042,33.9698723 20.5281068,33.7269328 22.0631101,33.2477239 C17.7311502,32.9609773 13.7028877,31.1993591 10.6663048,28.2447843 C7.47684093,25.1457366 5.71890545,21.0612657 5.71890545,16.7467631 C5.71890545,9.50479915 11.7632392,2.11107911 18.9168587,0.60141421 C19.1647075,0.498909438 19.4250501,0.399325133 19.6934727,0.307384517 C19.1090011,0.219590244 18.5182647,0.164065323 17.9335439,0.143261506 C9.60856062,2.38408865 3.79559511,10.2643729 3.79559511,19.3099953 C3.79559511,23.0762795 4.81187097,26.7466571 6.73514572,29.9208797" id="Claw-2"></path>
                            <path d="M16.1984249,0.0301276776 C7.26195328,0.124267656 0.019381535,7.66343415 0.019381535,16.9163376 C0.019381535,21.5991436 1.89723693,26.047555 5.19818465,29.2407788 C3.4959911,26.1898286 2.59742825,22.7247491 2.59742825,19.1729569 C2.59742825,10.2987046 8.15425139,2.53808738 16.1984249,0.0301276776" id="Claw-1"></path>
                        </g>
                    </g>
                </g>
            </g>
        </g>
    </g>
</svg>