<svg width="24" height="24" viewBox="0 0 24 24" xmlns="http://www.w3.org/2000/svg" xmlns:xlink="http://www.w3.org/1999/xlink"><defs><path d="M15.71814 16.14308c1.72774-1.44687 2.74406-3.57506 2.74406-5.87024 0-4.22863-3.43272-7.65717-7.66743-7.65717-4.2346 0-7.66693 3.42843-7.66693 7.65717S6.56017 17.93 10.79477 17.93c1.82665 0 3.55276-.63913 4.92337-1.78693zm6.65402 5.67994l-1.06002 1.06131-5.17525-5.16894c-1.54068 1.10562-3.39528 1.71462-5.34212 1.71462-5.06265 0-9.16693-4.09962-9.16693-9.15717 0-5.05755 4.10428-9.15717 9.16693-9.15717 5.06272 0 9.16743 4.0997 9.16743 9.15717 0 2.74395-1.21654 5.29139-3.281 7.02025l.04848-1.10566.29001.28966.29002.28966-.6285.52634a9.2241 9.2241 0 0 1-.54432.4223l-.46731-.46674.53-.53065.53001-.53066.2901.28975 5.35247 5.34593z" id="icon-24-utility-search-a"/></defs><g fill="none" fill-rule="evenodd"><mask id="icon-24-utility-search-b" fill="#fff"><use xlink:href="#icon-24-utility-search-a"/></mask><use fill="#444" fill-rule="nonzero" xlink:href="#icon-24-utility-search-a"/><g mask="url(#icon-24-utility-search-b)" fill="#444"><path d="M0 0h24v24H0z"/></g></g></svg>