<?xml version="1.0" encoding="UTF-8"?>
<svg width="1038px" height="500px" viewBox="0 0 1038 500" version="1.1" xmlns="http://www.w3.org/2000/svg" xmlns:xlink="http://www.w3.org/1999/xlink">
    <!-- Generator: Sketch 53.2 (72643) - https://sketchapp.com -->
    <title>Hero</title>
    <desc>Created with Sketch.</desc>
    <defs>
        <linearGradient x1="100%" y1="46.807162%" x2="0%" y2="55.6406402%" id="linearGradient-1">
            <stop stop-color="#42B0CD" offset="0%"></stop>
            <stop stop-color="#6DEDD6" offset="100%"></stop>
        </linearGradient>
        <rect id="path-2" x="0" y="0" width="1038" height="500"></rect>
    </defs>
    <g id="LSG-2.1" stroke="none" stroke-width="1" fill="none" fill-rule="evenodd">
        <g id="HP" transform="translate(-262.000000, 0.000000)">
            <g id="Group" transform="translate(262.000000, 0.000000)">
                <g id="Hero">
                    <mask id="mask-3" fill="white">
                        <use xlink:href="#path-2"></use>
                    </mask>
                    <use id="Rectangle-9" fill="url(#linearGradient-1)" transform="translate(519.000000, 250.000000) scale(-1, 1) translate(-519.000000, -250.000000) " xlink:href="#path-2"></use>
                    <path d="M138.160243,78 L138.11504,78 L138.11504,79 L138.930381,78.427242 L138.160243,78 Z M135.760722,78 L137.243865,79.6546407 L137.255276,79.6673728 L138,79 L138,78 L135.760722,78 Z" id="Combined-Shape" stroke="#FFFFFF" stroke-width="2" mask="url(#mask-3)" transform="translate(139.000000, 70.000000) scale(-1, 1) translate(-139.000000, -70.000000) "></path>
                    <path d="M82,481.406345 L-38,435.492428 L140.16893,285.178482 C142.279557,283.397831 145.43406,283.66533 147.214711,285.775956 C147.34553,285.931017 147.46679,286.093897 147.577819,286.26369 L192.282778,354.629835 C192.654902,355.198915 193.139187,355.686116 193.706022,356.061649 L263.476709,402.28534 C265.351117,403.527152 267.823893,403.365066 269.520163,401.889204 L370.342428,314.167446 C372.282807,312.479193 375.187449,312.538421 377.057395,314.30437 L554,481.406345 L82,481.406345 Z" id="Path-4" fill-opacity="0.119999997" fill="#FFFFFF" mask="url(#mask-3)"></path>
                    <path d="M610,500.386046 C514.608108,479.610479 445.28097,461.967533 303.340648,452.847475 C217.937002,447.360055 116.156786,441.74423 -2,436 L-2,500.386046 C406,500.386046 610,500.386046 610,500.386046 Z" id="Oval-2" fill="#FFFFFF" mask="url(#mask-3)"></path>
                    <path d="M1044,500.341446 C948.608108,464.472249 692.523438,411.674399 474,436.341446 C474,436.341446 474,500.341446 474,500.341446 C621.171875,500.341446 1044,500.341446 1044,500.341446 Z" id="Oval-2" fill="#FFFFFF" opacity="0.85" mask="url(#mask-3)" transform="translate(759.000000, 465.170723) scale(-1, 1) translate(-759.000000, -465.170723) "></path>
                    <g id="Group-46" mask="url(#mask-3)">
                        <g transform="translate(52.000000, 377.000000)">
                            <path d="M25.403728,3.2374441 L47.0727021,53.2130038 C47.4088471,53.9882614 47.0528761,54.8892312 46.2776185,55.2253762 C46.0855147,55.3086708 45.8783586,55.3516484 45.6689741,55.3516484 L2.33102592,55.3516484 C1.4860302,55.3516484 0.801025816,54.666644 0.801025816,53.8216482 C0.801025816,53.6122638 0.844003357,53.4051076 0.927297923,53.2130038 L22.596272,3.2374441 C22.932417,2.46218654 23.8333869,2.10621549 24.6086444,2.44236052 C24.964982,2.59686543 25.2492231,2.88110656 25.403728,3.2374441 Z" id="Triangle" stroke="none" fill="#113C64" fill-rule="evenodd"></path>
                            <path d="M24.3870968,22.3681319 L24.3870968,68.6208791" id="Line-4" stroke="#AFE6E1" stroke-width="1.5300001" fill="none" stroke-linecap="round"></path>
                            <path d="M14.7096774,42.4615385 L24.1594855,49.0723245" id="Line-4" stroke="#AFE6E1" stroke-width="1.5300001" fill="none" stroke-linecap="round"></path>
                            <path d="M16.2580645,32.6043956 L23.817911,37.8930244" id="Line-4" stroke="#AFE6E1" stroke-width="1.5300001" fill="none" stroke-linecap="round"></path>
                            <path d="M24.7741935,37.1538462 L34.2240016,43.7646322" id="Line-4" stroke="#AFE6E1" stroke-width="1.5300001" fill="none" stroke-linecap="round" transform="translate(29.499098, 40.459239) scale(-1, 1) translate(-29.499098, -40.459239) "></path>
                            <path d="M24.4857809,27.2967033 L30.7856529,31.703894" id="Line-4" stroke="#AFE6E1" stroke-width="1.5300001" fill="none" stroke-linecap="round" transform="translate(27.635717, 29.500299) scale(-1, 1) translate(-27.635717, -29.500299) "></path>
                        </g>
                    </g>
                    <g id="Group-46" mask="url(#mask-3)">
                        <g transform="translate(119.000000, 384.000000)">
                            <path d="M28.0622949,3.64157563 L51.9831244,59.3989809 C52.3532932,60.2618126 51.953911,61.2613569 51.0910793,61.6315256 C50.8793051,61.7223802 50.6512702,61.7692308 50.4208295,61.7692308 L2.57917046,61.7692308 C1.64028636,61.7692308 0.879170414,61.0081148 0.879170414,60.0692307 C0.879170414,59.8387901 0.926020988,59.6107551 1.01687556,59.3989809 L24.9377051,3.64157563 C25.3078738,2.77874399 26.3074182,2.37936179 27.1702498,2.74953054 C27.5710047,2.92146087 27.8903646,3.24082074 28.0622949,3.64157563 Z" id="Triangle" stroke="none" fill="#113C64" fill-rule="evenodd"></path>
                            <path d="M26.9274194,24.9615385 L26.9274194,76.5769231" id="Line-4" stroke="#AFE6E1" stroke-width="1.70000005" fill="none" stroke-linecap="round"></path>
                            <path d="M16.2419355,47.3846154 L26.6760985,54.7618694" id="Line-4" stroke="#AFE6E1" stroke-width="1.70000005" fill="none" stroke-linecap="round"></path>
                            <path d="M17.9516129,36.3846154 L26.2989433,42.2864186" id="Line-4" stroke="#AFE6E1" stroke-width="1.70000005" fill="none" stroke-linecap="round"></path>
                            <path d="M27.3548387,41.4615385 L37.7890018,48.8387925" id="Line-4" stroke="#AFE6E1" stroke-width="1.70000005" fill="none" stroke-linecap="round" transform="translate(32.571920, 45.150165) scale(-1, 1) translate(-32.571920, -45.150165) "></path>
                            <path d="M27.036383,30.4615385 L33.9924917,35.3797078" id="Line-4" stroke="#AFE6E1" stroke-width="1.70000005" fill="none" stroke-linecap="round" transform="translate(30.514437, 32.920623) scale(-1, 1) translate(-30.514437, -32.920623) "></path>
                        </g>
                    </g>
                    <path d="M993.625133,98 L993.230079,98 L993.230079,99 L993.994664,98.3554768 L993.995321,98.3562707 L993.707438,98.0026244 L993.625133,98 Z M990.455717,98 L992.296124,99.7110131 L992.319019,99.732301 L993,99 L993,98 L990.455717,98 Z" id="Combined-Shape" stroke="#FFFFFF" stroke-width="2" mask="url(#mask-3)"></path>
                    <g id="Group-33" mask="url(#mask-3)" fill="#FFFFFF">
                        <g transform="translate(785.000000, -13.244898)" id="Oval-5">
                            <circle opacity="0.15" cx="81.5" cy="81.5" r="81.5"></circle>
                            <circle opacity="0.3" cx="81.5" cy="81.5" r="50.5"></circle>
                            <circle cx="82" cy="82" r="35"></circle>
                        </g>
                    </g>
                    <g id="Group-46" mask="url(#mask-3)">
                        <g transform="translate(950.000000, 365.000000)">
                            <path d="M28.0622949,3.64157563 L51.9831244,59.3989809 C52.3532932,60.2618126 51.953911,61.2613569 51.0910793,61.6315256 C50.8793051,61.7223802 50.6512702,61.7692308 50.4208295,61.7692308 L2.57917046,61.7692308 C1.64028636,61.7692308 0.879170414,61.0081148 0.879170414,60.0692307 C0.879170414,59.8387901 0.926020988,59.6107551 1.01687556,59.3989809 L24.9377051,3.64157563 C25.3078738,2.77874399 26.3074182,2.37936179 27.1702498,2.74953054 C27.5710047,2.92146087 27.8903646,3.24082074 28.0622949,3.64157563 Z" id="Triangle" stroke="none" fill="#113C64" fill-rule="evenodd"></path>
                            <path d="M26.9274194,24.9615385 L26.9274194,76.5769231" id="Line-4" stroke="#AFE6E1" stroke-width="1.70000005" fill="none" stroke-linecap="round"></path>
                            <path d="M16.2419355,47.3846154 L26.6760985,54.7618694" id="Line-4" stroke="#AFE6E1" stroke-width="1.70000005" fill="none" stroke-linecap="round"></path>
                            <path d="M17.9516129,36.3846154 L26.2989433,42.2864186" id="Line-4" stroke="#AFE6E1" stroke-width="1.70000005" fill="none" stroke-linecap="round"></path>
                            <path d="M27.3548387,41.4615385 L37.7890018,48.8387925" id="Line-4" stroke="#AFE6E1" stroke-width="1.70000005" fill="none" stroke-linecap="round" transform="translate(32.571920, 45.150165) scale(-1, 1) translate(-32.571920, -45.150165) "></path>
                            <path d="M27.036383,30.4615385 L33.9924917,35.3797078" id="Line-4" stroke="#AFE6E1" stroke-width="1.70000005" fill="none" stroke-linecap="round" transform="translate(30.514437, 32.920623) scale(-1, 1) translate(-30.514437, -32.920623) "></path>
                        </g>
                    </g>
                </g>
            </g>
        </g>
    </g>
</svg>